<?xml version="1.0" encoding="UTF-8"?>
<svg version="1.1" xmlns="http://www.w3.org/2000/svg" width="113" height="40">
<path d="M0 0 C2.15478516 -0.34057617 2.15478516 -0.34057617 4.7890625 -0.29296875 C5.73007812 -0.28330078 6.67109375 -0.27363281 7.640625 -0.26367188 C9.11789063 -0.2259668 9.11789063 -0.2259668 10.625 -0.1875 C11.61757813 -0.17396484 12.61015625 -0.16042969 13.6328125 -0.14648438 C16.08908072 -0.11105743 18.54427285 -0.06166196 21 0 C21.495 0.99 21.495 0.99 22 2 C22.33 1.34 22.66 0.68 23 0 C43.46 0 63.92 0 85 0 C83.86353945 9.09168443 83.86353945 9.09168443 82.0625 13.9375 C81.55396484 15.34322266 81.55396484 15.34322266 81.03515625 16.77734375 C80 19 80 19 78 20 C78.27831665 20.86963379 78.27831665 20.86963379 78.56225586 21.75683594 C79.05160843 24.26446081 78.7979874 25.48901373 78.00390625 27.890625 C77.66069336 28.95410156 77.66069336 28.95410156 77.31054688 30.0390625 C76.94026367 31.13347656 76.94026367 31.13347656 76.5625 32.25 C76.31951172 32.99507812 76.07652344 33.74015625 75.82617188 34.5078125 C75.22667019 36.34158235 74.61455513 38.17122004 74 40 C65.95076017 40.04628835 57.90157571 40.08185126 49.85223579 40.10362434 C46.1148217 40.11407298 42.3774985 40.1282517 38.64013672 40.15087891 C35.035095 40.17256904 31.43014083 40.18456049 27.82503891 40.18975449 C26.44788102 40.19345716 25.07072806 40.20068734 23.69360733 40.21146011 C21.76860455 40.22592335 19.84351413 40.22681648 17.91845703 40.22705078 C16.82147491 40.231492 15.7244928 40.23593323 14.5942688 40.24050903 C12 40 12 40 10 38 C9.67 38.66 9.34 39.32 9 40 C2.07 40 -4.86 40 -12 40 C-11.30582209 34.44657674 -10.62095046 30.17699652 -9.00390625 24.98046875 C-8.81030014 24.35521805 -8.61669403 23.72996735 -8.41722107 23.08576965 C-8.01114672 21.77987484 -7.6017808 20.47499922 -7.18920898 19.17114258 C-6.55928051 17.17730977 -5.94204154 15.17985531 -5.32617188 13.18164062 C-2.27592892 3.41389339 -2.27592892 3.41389339 0 0 Z M39 19 C39 19.66 39 20.32 39 21 C39.99 20.67 40.98 20.34 42 20 C41.01 19.67 40.02 19.34 39 19 Z " fill="#F7F7F7" transform="translate(20,0)"/>
<path d="M0 0 C5.94 0 11.88 0 18 0 C18.66 2.64 19.32 5.28 20 8 C20.99 5.36 21.98 2.72 23 0 C28.94 0 34.88 0 41 0 C39.72938216 4.29173057 38.45851217 8.58338621 37.1875 12.875 C36.83107422 14.07898438 36.47464844 15.28296875 36.10742188 16.5234375 C35.40395501 18.89844489 34.69938488 21.2731258 33.99365234 23.64746094 C33.35867736 25.78983846 32.72833019 27.93359663 32.10400391 30.07910156 C31.83894043 30.98370117 31.57387695 31.88830078 31.30078125 32.8203125 C31.07173096 33.60937988 30.84268066 34.39844727 30.60668945 35.21142578 C30 37 30 37 29 38 C27.65732587 38.08631874 26.31025678 38.10706473 24.96484375 38.09765625 C24.15595703 38.09443359 23.34707031 38.09121094 22.51367188 38.08789062 C21.66353516 38.07951172 20.81339844 38.07113281 19.9375 38.0625 C19.08349609 38.05798828 18.22949219 38.05347656 17.34960938 38.04882812 C15.23304337 38.03700373 13.11651315 38.01906769 11 38 C10.01 35.36 9.02 32.72 8 30 C7.01 32.64 6.02 35.28 5 38 C-0.61 38 -6.22 38 -12 38 C-11.13040759 31.04326073 -9.77306711 25.22710971 -7.6875 18.625 C-7.39166016 17.62855469 -7.09582031 16.63210937 -6.79101562 15.60546875 C-6.49259766 14.65542969 -6.19417969 13.70539062 -5.88671875 12.7265625 C-5.62076904 11.86627441 -5.35481934 11.00598633 -5.08081055 10.11962891 C-3.77636295 7.56141475 -2.64402506 6.98983738 0 6 C0 4.02 0 2.04 0 0 Z " fill="#F7F7F7" transform="translate(22,1)"/>
<path d="M0 0 C2.15478516 -0.34057617 2.15478516 -0.34057617 4.7890625 -0.29296875 C5.73007812 -0.28330078 6.67109375 -0.27363281 7.640625 -0.26367188 C9.11789063 -0.2259668 9.11789063 -0.2259668 10.625 -0.1875 C11.61757813 -0.17396484 12.61015625 -0.16042969 13.6328125 -0.14648438 C16.08908072 -0.11105743 18.54427285 -0.06166196 21 0 C21.495 0.99 21.495 0.99 22 2 C22.33 1.34 22.66 0.68 23 0 C43.46 0 63.92 0 85 0 C83.86353945 9.09168443 83.86353945 9.09168443 82.0625 13.9375 C81.55396484 15.34322266 81.55396484 15.34322266 81.03515625 16.77734375 C80 19 80 19 78 20 C78.27831665 20.86963379 78.27831665 20.86963379 78.56225586 21.75683594 C79.05160843 24.26446081 78.7979874 25.48901373 78.00390625 27.890625 C77.66069336 28.95410156 77.66069336 28.95410156 77.31054688 30.0390625 C76.94026367 31.13347656 76.94026367 31.13347656 76.5625 32.25 C76.31951172 32.99507812 76.07652344 33.74015625 75.82617188 34.5078125 C75.22667019 36.34158235 74.61455513 38.17122004 74 40 C65.95076017 40.04628835 57.90157571 40.08185126 49.85223579 40.10362434 C46.1148217 40.11407298 42.3774985 40.1282517 38.64013672 40.15087891 C35.035095 40.17256904 31.43014083 40.18456049 27.82503891 40.18975449 C26.44788102 40.19345716 25.07072806 40.20068734 23.69360733 40.21146011 C21.76860455 40.22592335 19.84351413 40.22681648 17.91845703 40.22705078 C16.82147491 40.231492 15.7244928 40.23593323 14.5942688 40.24050903 C12 40 12 40 10 38 C9.67 38.66 9.34 39.32 9 40 C2.07 40 -4.86 40 -12 40 C-11.30582209 34.44657674 -10.62095046 30.17699652 -9.00390625 24.98046875 C-8.81030014 24.35521805 -8.61669403 23.72996735 -8.41722107 23.08576965 C-8.01114672 21.77987484 -7.6017808 20.47499922 -7.18920898 19.17114258 C-6.55928051 17.17730977 -5.94204154 15.17985531 -5.32617188 13.18164062 C-2.27592892 3.41389339 -2.27592892 3.41389339 0 0 Z M2 1 C2 2.98 2 4.96 2 7 C1.38415039 7.21156738 0.76830078 7.42313477 0.13378906 7.64111328 C-2.85977114 9.54753846 -3.13614099 11.37484803 -4.140625 14.7421875 C-4.48867187 15.89074219 -4.83671875 17.03929688 -5.1953125 18.22265625 C-5.54335937 19.42792969 -5.89140625 20.63320313 -6.25 21.875 C-6.61351562 23.07253906 -6.97703125 24.27007813 -7.3515625 25.50390625 C-9.37038603 32.13847172 -9.37038603 32.13847172 -10 39 C-4.39 39 1.22 39 7 39 C7.99 36.36 8.98 33.72 10 31 C10.99 33.64 11.98 36.28 13 39 C18.94 39 24.88 39 31 39 C32.89268708 33.95283446 34.6732241 29.03902826 36.26171875 23.91015625 C36.45723831 23.2801622 36.65275787 22.65016815 36.85420227 22.00108337 C37.26111082 20.68816552 37.6668819 19.37489461 38.0715332 18.0612793 C38.69385184 16.04188862 39.3202984 14.02381108 39.94726562 12.00585938 C42.01030264 6.57653522 42.01030264 6.57653522 43 1 C37.06 1 31.12 1 25 1 C24.01 3.64 23.02 6.28 22 9 C21.34 6.36 20.68 3.72 20 1 C14.06 1 8.12 1 2 1 Z M45 1 C40.73647686 11.68238431 40.73647686 11.68238431 41 18 C43.90412546 20.35322796 43.90412546 20.35322796 47 22 C44.03 22.33 41.06 22.66 38 23 C37.33011414 25.29077041 36.66396838 27.58251459 36 29.875 C35.80921875 30.52597656 35.6184375 31.17695313 35.421875 31.84765625 C34.36215937 35.36641347 34.36215937 35.36641347 34 39 C46.54 39 59.08 39 72 39 C75.43392838 30.65155571 75.43392838 30.65155571 77 22 C75.03852126 20.61061923 73.03833424 19.2739589 71 18 C74.96 17.505 74.96 17.505 79 17 C79.67184618 14.89748139 80.33730968 12.79292237 81 10.6875 C81.37125 9.51574219 81.7425 8.34398437 82.125 7.13671875 C83.13434772 4.06113324 83.13434772 4.06113324 83 1 C70.46 1 57.92 1 45 1 Z M39 19 C39 19.66 39 20.32 39 21 C39.99 20.67 40.98 20.34 42 20 C41.01 19.67 40.02 19.34 39 19 Z " fill="#282526" transform="translate(20,0)"/>
<path d="M0 0 C1.30076654 3.90229962 0.17765425 6.40149034 -1.0546875 10.15234375 C-1.27569122 10.84888565 -1.49669495 11.54542755 -1.72439575 12.26307678 C-2.43300381 14.49062287 -3.15363613 16.71405567 -3.875 18.9375 C-4.58658858 21.15814714 -5.29572397 23.37956356 -6.00418091 25.60121155 C-6.44585613 26.98319507 -6.88983314 28.36444562 -7.33639526 29.74485779 C-8.32754355 32.81870346 -9.21595439 35.86381756 -10 39 C-1.585 38.505 -1.585 38.505 7 38 C7.99 35.36 8.98 32.72 10 30 C12.12508244 33.18762365 12.5020163 35.26512223 13 39 C15.95867918 38.85953745 18.91682264 38.71287776 21.875 38.5625 C22.71675781 38.52318359 23.55851562 38.48386719 24.42578125 38.44335938 C25.23144531 38.40146484 26.03710938 38.35957031 26.8671875 38.31640625 C27.61081543 38.27974854 28.35444336 38.24309082 29.12060547 38.20532227 C31.08864312 38.10044135 31.08864312 38.10044135 33 37 C33 37.99 33 38.98 33 40 C29.54173658 40.05789006 26.08359707 40.09355821 22.625 40.125 C21.64015625 40.14175781 20.6553125 40.15851562 19.640625 40.17578125 C18.69960938 40.18222656 17.75859375 40.18867187 16.7890625 40.1953125 C15.48509521 40.21102295 15.48509521 40.21102295 14.15478516 40.22705078 C12 40 12 40 10 38 C9.67 38.66 9.34 39.32 9 40 C2.07 40 -4.86 40 -12 40 C-11.30582209 34.44657674 -10.62095046 30.17699652 -9.00390625 24.98046875 C-8.81030014 24.35521805 -8.61669403 23.72996735 -8.41722107 23.08576965 C-8.01114672 21.77987484 -7.6017808 20.47499922 -7.18920898 19.17114258 C-6.55928051 17.17730977 -5.94204154 15.17985531 -5.32617188 13.18164062 C-2.27592892 3.41389339 -2.27592892 3.41389339 0 0 Z " fill="#272324" transform="translate(20,0)"/>
<path d="M0 0 C6.6 0 13.2 0 20 0 C20.33 0.66 20.66 1.32 21 2 C21.33 1.34 21.66 0.68 22 0 C42.13 0 62.26 0 83 0 C82.67 0.99 82.34 1.98 82 3 C82 2.34 82 1.68 82 1 C69.46 1 56.92 1 44 1 C43.67 2.98 43.34 4.96 43 7 C42.01 7 41.02 7 40 7 C40.33 5.35 40.66 3.7 41 2 C35.39 2 29.78 2 24 2 C23.34 4.64 22.68 7.28 22 10 C21.34 9.67 20.68 9.34 20 9 C19.67 6.36 19.34 3.72 19 1 C13.06 1 7.12 1 1 1 C1 2.98 1 4.96 1 7 C0.01 7.33 -0.98 7.66 -2 8 C-1.34 5.36 -0.68 2.72 0 0 Z " fill="#5A5858" transform="translate(21,0)"/>
<path d="M0 0 C1.53166168 4.08443115 0.63081652 7.79455657 0 12 C0.99 12.639375 1.98 13.27875 3 13.9375 C3.99 14.618125 4.98 15.29875 6 16 C6 16.33 6 16.66 6 17 C2.7 17 -0.6 17 -4 17 C-4.433125 18.98 -4.433125 18.98 -4.875 21 C-5.84108858 25.35429922 -6.89979797 29.67777775 -8 34 C-10 31 -10 31 -9.88305664 29.125 C-8.33673761 22.98767176 -6.47017846 16.99325814 -4.4375 11 C-3.96280273 9.57107422 -3.96280273 9.57107422 -3.47851562 8.11328125 C-1.13375235 1.13375235 -1.13375235 1.13375235 0 0 Z M-3 13 C-3 13.66 -3 14.32 -3 15 C-2.01 14.67 -1.02 14.34 0 14 C-0.99 13.67 -1.98 13.34 -3 13 Z " fill="#3D3A3B" transform="translate(62,6)"/>
<path d="M0 0 C3.10742423 1.46818668 5.90471739 3.20025 8.75 5.125 C9.94882813 5.93324219 9.94882813 5.93324219 11.171875 6.7578125 C11.77515625 7.16773438 12.3784375 7.57765625 13 8 C12.67 8.66 12.34 9.32 12 10 C4.575 9.01 4.575 9.01 -3 8 C-2.01 6.68 -1.02 5.36 0 4 C0 2.68 0 1.36 0 0 Z " fill="#A5A5A5" transform="translate(84,14)"/>
<path d="M0 0 C4.29 0 8.58 0 13 0 C13 3.10551666 12.4606285 4.35261084 11 7 C7.87691494 6.39196574 5.80748338 5.37985958 3.25 3.5 C2.63640625 3.0565625 2.0228125 2.613125 1.390625 2.15625 C0.93171875 1.7746875 0.4728125 1.393125 0 1 C0 0.67 0 0.34 0 0 Z " fill="#CECECE" transform="translate(67,1)"/>
<path d="M0 0 C2.56616632 3.84924948 2.55097676 6.4349304 3 11 C0.36 11 -2.28 11 -5 11 C-4.75 8.125 -4.75 8.125 -4 5 C-1.9375 3.625 -1.9375 3.625 0 3 C0 2.01 0 1.02 0 0 Z " fill="#C1C1C1" transform="translate(22,4)"/>
<path d="M0 0 C1.66611905 -0.042721 3.33382885 -0.04063832 5 0 C5.33 0.33 5.66 0.66 6 1 C5.62386798 5.58881061 5.23302527 8.94409696 3 13 C2.49242138 11.58603098 1.99425075 10.16868271 1.5 8.75 C1.08234375 7.56664062 1.08234375 7.56664062 0.65625 6.359375 C0 4 0 4 0 0 Z " fill="#B9B9B9" transform="translate(30,26)"/>
<path d="M0 0 C0.33 0 0.66 0 1 0 C0.48378772 6.83981276 -1.48590969 12.63876684 -4 19 C-6.97 19 -9.94 19 -13 19 C-13.33 18.34 -13.66 17.68 -14 17 C-11.03 17 -8.06 17 -5 17 C-4.89042969 16.35933594 -4.78085938 15.71867188 -4.66796875 15.05859375 C-3.67539672 9.6438309 -2.37541347 4.96677361 0 0 Z " fill="#312D2E" transform="translate(104,0)"/>
<path d="M0 0 C1 3 1 3 0.0625 5.1875 C-0.4634375 6.0846875 -0.4634375 6.0846875 -1 7 C-1.33 6.34 -1.66 5.68 -2 5 C-3.98 5 -5.96 5 -8 5 C-8 3.68 -8 2.36 -8 1 C-6.865625 1.020625 -5.73125 1.04125 -4.5625 1.0625 C-1.18424326 1.41577477 -1.18424326 1.41577477 0 0 Z " fill="#D1D1D1" transform="translate(37,22)"/>
<path d="M0 0 C1.32 0.66 2.64 1.32 4 2 C3.125 6.875 3.125 6.875 2 8 C0.33382885 8.04063832 -1.33388095 8.042721 -3 8 C-2.505 7.4225 -2.01 6.845 -1.5 6.25 C0.36980013 3.89599371 0.36980013 3.89599371 0 0 Z " fill="#C8C8C8" transform="translate(84,14)"/>
<path d="M0 0 C0.66 0 1.32 0 2 0 C2.33 0.66 2.66 1.32 3 2 C3.33 1.34 3.66 0.68 4 0 C4.66 0 5.32 0 6 0 C5.34 3.3 4.68 6.6 4 10 C3.34 9.67 2.68 9.34 2 9 C1.3671875 6.93359375 1.3671875 6.93359375 0.875 4.4375 C0.70742188 3.61121094 0.53984375 2.78492188 0.3671875 1.93359375 C0.24601562 1.29550781 0.12484375 0.65742188 0 0 Z " fill="#2E2B2C" transform="translate(39,0)"/>
<path d="M0 0 C2.31 0 4.62 0 7 0 C6.67 0.66 6.34 1.32 6 2 C6.2784375 2.9590625 6.2784375 2.9590625 6.5625 3.9375 C6.706875 4.618125 6.85125 5.29875 7 6 C6.01 7.485 6.01 7.485 5 9 C4.67 8.01 4.34 7.02 4 6 C4.33 5.34 4.66 4.68 5 4 C4.360625 3.71125 3.72125 3.4225 3.0625 3.125 C1 2 1 2 0 0 Z " fill="#211D1E" transform="translate(92,18)"/>
<path d="M0 0 C0.99 0 1.98 0 3 0 C2.67 2.97 2.34 5.94 2 9 C0.05276405 6.07914607 -0.55175352 4.40667322 -1 1 C-0.67 0.67 -0.34 0.34 0 0 Z " fill="#919191" transform="translate(32,30)"/>
<path d="M0 0 C0.95465783 2.16967689 1.14401212 3.56328793 0.3984375 5.82421875 C-0.35870385 7.5684743 -1.17609198 9.28627131 -2 11 C-2.33 11 -2.66 11 -3 11 C-2.25 3.375 -2.25 3.375 0 0 Z " fill="#262323" transform="translate(62,6)"/>
<path d="M0 0 C0.33 0 0.66 0 1 0 C1 1.98 1 3.96 1 6 C-0.65 6.33 -2.3 6.66 -4 7 C-3.34 5.68 -2.68 4.36 -2 3 C-1.34 3 -0.68 3 0 3 C0 2.01 0 1.02 0 0 Z " fill="#A2A2A2" transform="translate(22,4)"/>
<path d="M0 0 C2.31 0 4.62 0 7 0 C6.67 1.32 6.34 2.64 6 4 C1.125 2.25 1.125 2.25 0 0 Z " fill="#939393" transform="translate(67,1)"/>
<path d="M0 0 C0.99 0.33 1.98 0.66 3 1 C2.67 2.65 2.34 4.3 2 6 C0.68 5.34 -0.64 4.68 -2 4 C-1.34 2.68 -0.68 1.36 0 0 Z " fill="#B9B9B9" transform="translate(74,1)"/>
</svg>
